<svg xmlns="http://www.w3.org/2000/svg" viewBox="0 0 50 50" id="add-user"><path d="M5 32v17h30.343l2.167-1.686C42.27 43.612 45 38.03 45 32v-.649l-8.841-3.931a12.986 12.986 0 0 0-9.55-8.147A9.996 9.996 0 0 0 31 11c0-5.514-4.486-10-10-10S11 5.486 11 11a9.996 9.996 0 0 0 4.38 8.265C9.464 20.481 5 25.729 5 32zm37.988.645c-.187 5.16-2.607 9.903-6.707 13.092L35 46.733l-1.281-.997c-4.1-3.188-6.521-7.932-6.707-13.092l7.99-3.55 7.986 3.551zM13 11c0-4.411 3.589-8 8-8s8 3.589 8 8-3.589 8-8 8-8-3.589-8-8zm5 10h6c4.312 0 8.173 2.517 9.961 6.367L25 31.351V32c0 5.865 2.589 11.3 7.109 15H7V32c0-6.065 4.935-11 11-11z"></path><path d="M36 33h-2v3h-3v2h3v3h2v-3h3v-2h-3z"></path></svg>